<?xml version="1.0" encoding="UTF-8"?>
<svg width="554px" height="358px" viewBox="0 0 554 358" version="1.1" xmlns="http://www.w3.org/2000/svg" xmlns:xlink="http://www.w3.org/1999/xlink">
    <!-- Generator: Sketch 51.2 (57519) - http://www.bohemiancoding.com/sketch -->
    <title>people_laughing_movies</title>
    <desc>Created with Sketch.</desc>
    <defs></defs>
    <g id="Page-1" stroke="none" stroke-width="1" fill="none" fill-rule="evenodd">
        <g id="people_laughing_movies">
            <g id="Group" fill-rule="nonzero">
                <g transform="translate(86.000000, 0.000000)" id="Shape">
                    <g>
                        <g transform="translate(31.000000, 0.000000)">
                            <path d="M141.975,153.66 L141.975,70.689 C141.975,31.83 110.182,0.037 71.323,0.037 C32.464,0.037 0.671,31.83 0.671,70.689 L0.671,153.66 L141.975,153.66 Z" fill="#C6313A"></path>
                            <path d="M22.953,153.66 L22.953,70.689 C22.953,44.018 44.651,22.32 71.322,22.32 C97.993,22.32 119.692,44.018 119.692,70.689 L119.692,153.66 L125.127,153.66 L125.127,70.689 C125.127,41.022 100.99,16.885 71.322,16.885 C41.655,16.885 17.518,41.021 17.518,70.689 L17.518,153.66 L22.953,153.66 Z" fill="#A62331"></path>
                        </g>
                        <path d="M188.736,185.001 L15.91,185.001 C12.921,185.001 10.475,182.555 10.475,179.566 L10.475,159.095 C10.475,156.106 12.921,153.66 15.91,153.66 L188.736,153.66 C191.725,153.66 194.171,156.106 194.171,159.095 L194.171,179.566 C194.171,182.555 191.725,185.001 188.736,185.001 Z" fill="#C6313A"></path>
                        <path d="M31.671,185.001 L31.671,119.331 L11.2,119.331 C5.222,119.331 0.33,124.222 0.33,130.201 L0.33,179.567 C0.33,182.569 2.763,185.002 5.765,185.002 L31.671,185.002 L31.671,185.001 Z" fill="#A34343"></path>
                        <path d="M172.975,185.001 L172.975,119.331 L193.446,119.331 C199.424,119.331 204.316,124.222 204.316,130.201 L204.316,179.567 C204.316,182.569 201.883,185.002 198.881,185.002 L172.975,185.002 L172.975,185.001 Z" fill="#A34343"></path>
                    </g>
                    <g transform="translate(172.000000, 0.000000)">
                        <g transform="translate(32.000000, 0.000000)">
                            <path d="M141.619,153.66 L141.619,70.689 C141.619,31.83 109.826,0.037 70.967,0.037 C32.108,0.037 0.315,31.83 0.315,70.689 L0.315,153.66 L141.619,153.66 Z" fill="#C6313A"></path>
                            <path d="M22.598,153.66 L22.598,70.689 C22.598,44.018 44.296,22.32 70.967,22.32 C97.638,22.32 119.337,44.018 119.337,70.689 L119.337,153.66 L124.772,153.66 L124.772,70.689 C124.772,41.022 100.635,16.885 70.967,16.885 C41.3,16.885 17.163,41.021 17.163,70.689 L17.163,153.66 L22.598,153.66 Z" fill="#A62331"></path>
                        </g>
                        <path d="M189.38,185.001 L16.554,185.001 C13.565,185.001 11.119,182.555 11.119,179.566 L11.119,159.095 C11.119,156.106 13.565,153.66 16.554,153.66 L189.38,153.66 C192.369,153.66 194.815,156.106 194.815,159.095 L194.815,179.566 C194.815,182.555 192.369,185.001 189.38,185.001 Z" fill="#C6313A"></path>
                        <path d="M32.315,185.001 L32.315,119.331 L11.844,119.331 C5.866,119.331 0.974,124.222 0.974,130.201 L0.974,179.567 C0.974,182.569 3.407,185.002 6.409,185.002 L32.315,185.002 L32.315,185.001 Z" fill="#A34343"></path>
                        <path d="M173.619,185.001 L173.619,119.331 L194.09,119.331 C200.068,119.331 204.96,124.222 204.96,130.201 L204.96,179.567 C204.96,182.569 202.527,185.002 199.525,185.002 L173.619,185.002 L173.619,185.001 Z" fill="#A34343"></path>
                    </g>
                </g>
                <g transform="translate(0.000000, 65.000000)" id="Shape">
                    <g>
                        <g transform="translate(31.000000, 0.000000)">
                            <path d="M141.652,154.331 L141.652,71.36 C141.652,32.501 109.859,0.708 71,0.708 C32.141,0.708 0.348,32.501 0.348,71.36 L0.348,154.331 L141.652,154.331 Z" fill="#EF4849"></path>
                            <path d="M22.631,154.331 L22.631,71.36 C22.631,44.689 44.329,22.991 71,22.991 C97.671,22.991 119.37,44.689 119.37,71.36 L119.37,154.331 L124.805,154.331 L124.805,71.36 C124.805,41.693 100.668,17.556 71,17.556 C41.333,17.556 17.196,41.692 17.196,71.36 L17.196,154.331 L22.631,154.331 Z" fill="#C6313A"></path>
                        </g>
                        <path d="M188.413,185.671 L15.587,185.671 C12.598,185.671 10.152,183.225 10.152,180.236 L10.152,159.765 C10.152,156.776 12.598,154.33 15.587,154.33 L188.413,154.33 C191.402,154.33 193.848,156.776 193.848,159.765 L193.848,180.236 C193.848,183.225 191.402,185.671 188.413,185.671 Z" fill="#C6313A"></path>
                        <path d="M31.348,185.671 L31.348,120.001 L10.877,120.001 C4.899,120.001 0.007,124.892 0.007,130.871 L0.007,180.237 C0.007,183.239 2.44,185.672 5.442,185.672 L31.348,185.672 L31.348,185.671 Z" fill="#EF4849"></path>
                        <path d="M172.652,185.671 L172.652,120.001 L193.123,120.001 C199.101,120.001 203.993,124.892 203.993,130.871 L203.993,180.237 C203.993,183.239 201.56,185.672 198.558,185.672 L172.652,185.672 L172.652,185.671 Z" fill="#EF4849"></path>
                    </g>
                    <g transform="translate(172.000000, 0.000000)">
                        <g transform="translate(31.000000, 0.000000)">
                            <path d="M142.297,154.331 L142.297,71.36 C142.297,32.501 110.504,0.708 71.645,0.708 C32.786,0.708 0.993,32.501 0.993,71.36 L0.993,154.331 L142.297,154.331 Z" fill="#EF4849"></path>
                            <path d="M23.276,154.331 L23.276,71.36 C23.276,44.689 44.974,22.991 71.645,22.991 C98.316,22.991 120.015,44.689 120.015,71.36 L120.015,154.331 L125.45,154.331 L125.45,71.36 C125.45,41.693 101.313,17.556 71.645,17.556 C41.978,17.556 17.841,41.692 17.841,71.36 L17.841,154.331 L23.276,154.331 Z" fill="#C6313A"></path>
                        </g>
                        <path d="M189.058,185.671 L16.232,185.671 C13.243,185.671 10.797,183.225 10.797,180.236 L10.797,159.765 C10.797,156.776 13.243,154.33 16.232,154.33 L189.058,154.33 C192.047,154.33 194.493,156.776 194.493,159.765 L194.493,180.236 C194.493,183.225 192.047,185.671 189.058,185.671 Z" fill="#C6313A"></path>
                        <path d="M31.993,185.671 L31.993,120.001 L11.522,120.001 C5.544,120.001 0.652,124.892 0.652,130.871 L0.652,180.237 C0.652,183.239 3.085,185.672 6.087,185.672 L31.993,185.672 L31.993,185.671 Z" fill="#EF4849"></path>
                        <path d="M173.297,185.671 L173.297,120.001 L193.768,120.001 C199.746,120.001 204.638,124.892 204.638,130.871 L204.638,180.237 C204.638,183.239 202.205,185.672 199.203,185.672 L173.297,185.672 L173.297,185.671 Z" fill="#EF4849"></path>
                    </g>
                    <g transform="translate(345.000000, 0.000000)">
                        <g transform="translate(31.000000, 0.000000)">
                            <path d="M141.942,154.331 L141.942,71.36 C141.942,32.501 110.149,0.708 71.29,0.708 C32.431,0.708 0.638,32.501 0.638,71.36 L0.638,154.331 L141.942,154.331 Z" fill="#EF4849"></path>
                            <path d="M22.92,154.331 L22.92,71.36 C22.92,44.689 44.618,22.991 71.289,22.991 C97.96,22.991 119.659,44.689 119.659,71.36 L119.659,154.331 L125.094,154.331 L125.094,71.36 C125.094,41.693 100.957,17.556 71.289,17.556 C41.622,17.556 17.485,41.692 17.485,71.36 L17.485,154.331 L22.92,154.331 Z" fill="#C6313A"></path>
                        </g>
                        <path d="M188.703,185.671 L15.877,185.671 C12.888,185.671 10.442,183.225 10.442,180.236 L10.442,159.765 C10.442,156.776 12.888,154.33 15.877,154.33 L188.703,154.33 C191.692,154.33 194.138,156.776 194.138,159.765 L194.138,180.236 C194.137,183.225 191.692,185.671 188.703,185.671 Z" fill="#C6313A"></path>
                        <path d="M31.638,185.671 L31.638,120.001 L11.167,120.001 C5.189,120.001 0.297,124.892 0.297,130.871 L0.297,180.237 C0.297,183.239 2.73,185.672 5.732,185.672 L31.638,185.672 L31.638,185.671 Z" fill="#EF4849"></path>
                        <path d="M172.942,185.671 L172.942,120.001 L193.413,120.001 C199.391,120.001 204.283,124.892 204.283,130.871 L204.283,180.237 C204.283,183.239 201.85,185.672 198.848,185.672 L172.942,185.672 L172.942,185.671 Z" fill="#EF4849"></path>
                    </g>
                </g>
            </g>
            <path d="M549.445,357.963 L4.555,357.963 C2.054,357.963 0.008,355.917 0.008,353.416 C0.008,350.915 2.054,348.869 4.555,348.869 L549.445,348.869 C551.946,348.869 553.992,350.915 553.992,353.416 C553.992,355.916 551.946,357.963 549.445,357.963 Z" id="Shape" fill="#E1E1E1" fill-rule="nonzero"></path>
            <path d="M330.905,143.693 L326.59,125.03 C323.069,109.803 309.507,99.019 293.879,99.019 L274.738,99.239 L255.597,99.019 C239.968,99.019 226.407,109.803 222.886,125.03 L218.571,143.693 L330.905,143.693 Z" id="Shape" fill="#7BC043" fill-rule="nonzero"></path>
            <rect id="Rectangle-path" fill="#7BC043" fill-rule="nonzero" x="238.254" y="143.693" width="72.694" height="75.637"></rect>
            <g id="Group" transform="translate(117.000000, 98.000000)" fill-rule="nonzero">
                <path d="M48.107,87.016 L3.124,21.702 C-1.114,15.509 0.471,7.054 6.664,2.816 C12.857,-1.422 21.313,0.163 25.55,6.356 L75.052,78.508 C77.526,82.114 74.944,87.017 70.571,87.017 L48.107,87.017 L48.107,87.016 Z" id="Shape" fill="#8D4D2A"></path>
                <path d="M27.24,56.785 L19.289,45.173 L14.313,0.442994203 C18.651,0.439 22.916,2.505 25.551,6.355 L47.864,38.877 L27.24,56.785 Z" id="Shape" fill="#EEA6AB"></path>
                <polygon id="Shape" fill="#E2848E" points="22.643 50.109 43.322 32.258 43.322 32.258 47.863 38.876 27.24 56.785"></polygon>
            </g>
            <g id="Group" transform="translate(9.000000, 3.000000)">
                <path d="M33.501,182.001 L78.484,116.687 C82.722,110.494 81.137,102.039 74.944,97.801 C68.751,93.563 60.295,95.148 56.058,101.341 L6.556,173.493 C4.082,177.099 6.664,182.002 11.037,182.002 L33.501,182.002 L33.501,182.001 Z" id="Shape" fill="#8D4D2A" fill-rule="nonzero"></path>
                <path d="M54.368,151.77 L62.319,140.158 L67.295,95.4279942 C62.957,95.424 58.692,97.49 56.057,101.34 L33.744,133.862 L54.368,151.77 Z" id="Shape" fill="#EEA6AB" fill-rule="nonzero"></path>
                <polygon id="Shape" fill="#E2848E" fill-rule="nonzero" points="58.966 145.094 38.286 127.243 38.286 127.243 33.745 133.862 54.368 151.77"></polygon>
                <g transform="translate(42.000000, 0.000000)" fill-rule="nonzero">
                    <path d="M94.76,216.015 L94.76,111.516 C94.76,101.759 86.777,93.775 77.019,93.775 L28.737,93.775 C18.98,93.775 10.996,101.758 10.996,111.516 L10.996,216.015 L94.76,216.015 Z" id="Shape" fill="#F9C9CA"></path>
                    <g transform="translate(0.000000, 156.000000)" id="Shape">
                        <path d="M82.817,8.492 L65.041,27.908 C61.68,31.579 56.933,33.669 51.956,33.669 L14.059,33.669 L14.059,60.409 L84.259,60.409 L84.259,33.669 L91.157,33.669 L91.157,8.492 L82.817,8.492 Z" fill="#2FA9D5"></path>
                        <g transform="translate(0.000000, 33.000000)">
                            <polygon fill="#A46644" points="45.403 142.971 31.181 19.928 7.682 22.645 21.591 142.971"></polygon>
                            <path d="M42.587,118.725 L30.442,13.658 C29.504,5.547 22.169,-0.268 14.058,0.669 C5.947,1.607 0.132,8.942 1.069,17.053 L12.821,118.725 L42.587,118.725 Z" fill="#43C0E4"></path>
                            <path d="M48.529,156.868 L11.157,156.868 C7.335,156.868 4.209,153.741 4.209,149.92 C4.209,146.098 7.336,142.972 11.157,142.972 L48.529,142.972 C52.351,142.972 55.477,146.099 55.477,149.92 C55.477,153.741 52.35,156.868 48.529,156.868 Z" fill="#231F20"></path>
                            <path d="M7.987,110.668 L8.93,118.822 C9.068,120.015 10.078,120.916 11.28,120.916 L44.089,120.916 C45.503,120.916 46.601,119.684 46.439,118.279 L45.496,110.125 C45.358,108.932 44.348,108.031 43.146,108.031 L10.337,108.031 C8.923,108.031 7.825,109.263 7.987,110.668 Z" fill="#2FA9D5"></path>
                        </g>
                        <g transform="translate(55.000000, 0.000000)">
                            <polygon fill="#A46644" points="11.068 143.338 25.29 20.296 48.788 23.012 34.88 143.338"></polygon>
                            <path d="M13.884,119.093 L26.029,14.026 C26.967,5.915 34.302,0.1 42.413,1.037 C50.524,1.975 56.339,9.31 55.402,17.421 L43.65,119.093 L13.884,119.093 Z" fill="#43C0E4"></path>
                            <path d="M7.942,157.235 L45.314,157.235 C49.136,157.235 52.262,154.108 52.262,150.287 C52.262,146.465 49.135,143.339 45.314,143.339 L7.942,143.339 C4.12,143.339 0.994,146.466 0.994,150.287 C0.993,154.108 4.12,157.235 7.942,157.235 Z" fill="#231F20"></path>
                            <path d="M48.483,111.036 L47.54,119.19 C47.402,120.383 46.392,121.284 45.19,121.284 L12.381,121.284 C10.967,121.284 9.869,120.052 10.031,118.647 L10.974,110.493 C11.112,109.3 12.122,108.399 13.324,108.399 L46.133,108.399 C47.548,108.399 48.646,109.631 48.483,111.036 Z" fill="#2FA9D5"></path>
                        </g>
                    </g>
                    <g transform="translate(9.000000, 0.000000)">
                        <path d="M33.632,113.445 L48.741,120.261 C49.824,120.749 50.97,120.997 52.146,120.997 C56.711,120.997 60.424,117.281 60.424,112.714 L60.424,93.776 L27.365,93.776 L27.365,103.742 C27.365,107.918 29.825,111.727 33.632,113.445 Z" id="Shape" fill="#EEA6AB"></path>
                        <path d="M50.686,115.947 L35.578,109.132 C33.459,108.176 32.096,106.067 32.096,103.741 L32.096,55.141 L55.693,55.141 L55.693,112.712 C55.693,115.289 53.034,117.007 50.686,115.947 Z" id="Shape" fill="#8D4D2A"></path>
                        <g>
                            <rect id="Rectangle-path" fill="#A46644" transform="translate(38.428803, 36.056548) rotate(-14.999329) translate(-38.428803, -36.056548) " x="6.63325338" y="25.3073695" width="63.5911001" height="21.4983577"></rect>
                            <circle id="Oval" fill="#8D4D2A" cx="70.851" cy="46.744" r="9.877"></circle>
                            <path d="M32.645,14.452 C15.654,18.702 5.504,36.028 10.02,52.879 L15.486,73.277 C20.001,90.128 37.453,100.058 54.293,95.243 C71.284,90.993 81.434,73.667 76.918,56.816 L71.452,36.418 C66.938,19.567 49.485,9.637 32.645,14.452 Z" id="Shape" fill="#A46644"></path>
                            <path d="M6.574,61.321 C6.574,56.114 10.606,51.858 15.717,51.481 L20.735,70.209 C19.437,70.836 17.988,71.197 16.45,71.197 C10.996,71.197 6.574,66.775 6.574,61.321 Z" id="Shape" fill="#8D4D2A"></path>
                            <g transform="translate(32.000000, 61.000000)" id="Shape">
                                <path d="M29.878,2.479 L31.952,10.221 C33.492,15.969 30.05,21.931 24.302,23.471 L16.15,25.655 C10.402,27.195 4.44,23.753 2.9,18.005 L0.826,10.263 C0.491,9.013 1.233,7.728 2.483,7.393 L27.008,0.821 C28.258,0.487 29.543,1.229 29.878,2.479 Z" fill="#8C3433"></path>
                                <path d="M2.482,7.393 L25.936,1.109 L26.969,4.963 C27.265,6.068 26.609,7.204 25.504,7.5 L3.566,13.378 C2.584,13.641 1.574,13.058 1.311,12.076 L0.825,10.263 C0.49,9.013 1.232,7.728 2.482,7.393 Z" fill="#FFFFFF"></path>
                                <path d="M16.15,25.655 C10.573,27.149 4.794,23.952 3.049,18.51 C4.188,17.699 5.487,17.074 6.916,16.691 C13.018,15.056 19.277,18.413 21.369,24.257 L16.15,25.655 Z" fill="#EF4849"></path>
                            </g>
                            <path d="M44.853,57.333 L41.852,46.134 C41.297,44.061 42.527,41.93 44.6,41.375 C46.673,40.82 48.804,42.05 49.359,44.123 L52.36,55.322 C53.793,55.083 55.213,55.959 55.596,57.39 C56.004,58.911 55.093,60.489 53.572,60.896 L46.592,62.766 C45.071,63.174 43.493,62.263 43.085,60.742 C42.701,59.312 43.492,57.843 44.853,57.333 Z" id="Shape" fill="#8D4D2A"></path>
                            <rect id="Rectangle-path" fill="#231F20" transform="translate(34.386084, 20.970526) rotate(-14.999329) translate(-34.386084, -20.970526) " x="2.59053348" y="14.221728" width="63.5911001" height="13.4975967"></rect>
                            <g fill="#231F20" id="Oval">
                                <circle transform="translate(7.354403, 21.226874) rotate(-14.999329) translate(-7.354403, -21.226874) " cx="7.3544034" cy="21.2268737" r="5.63183174"></circle>
                                <circle transform="translate(15.783045, 18.968080) rotate(-14.999329) translate(-15.783045, -18.968080) " cx="15.7830453" cy="18.9680804" r="5.63183174"></circle>
                                <circle transform="translate(24.212046, 16.710153) rotate(-14.999329) translate(-24.212046, -16.710153) " cx="24.212046" cy="16.710153" r="5.63183174"></circle>
                                <circle transform="translate(32.639722, 14.451619) rotate(-14.999329) translate(-32.639722, -14.451619) " cx="32.639722" cy="14.4516185" r="5.63183174"></circle>
                                <circle transform="translate(41.068723, 12.193791) rotate(-14.999329) translate(-41.068723, -12.193791) " cx="41.0687227" cy="12.1937911" r="5.63183174"></circle>
                                <circle transform="translate(49.497365, 9.934998) rotate(-14.999329) translate(-49.497365, -9.934998) " cx="49.4973646" cy="9.9349978" r="5.63183174"></circle>
                                <circle transform="translate(57.926265, 7.677170) rotate(-14.999329) translate(-57.926265, -7.677170) " cx="57.9262653" cy="7.6771704" r="5.63183174"></circle>
                            </g>
                            <g transform="translate(9.000000, 34.000000)" fill="#8D4D2A" id="Oval">
                                <circle transform="translate(3.191812, 5.639516) rotate(-14.999329) translate(-3.191812, -5.639516) " cx="3.191812" cy="5.639516" r="2.43692719"></circle>
                                <circle transform="translate(10.360694, 3.718785) rotate(-14.999329) translate(-10.360694, -3.718785) " cx="10.3606943" cy="3.7187849" r="2.43692719"></circle>
                                <circle transform="translate(5.164695, 13.004457) rotate(-14.999329) translate(-5.164695, -13.004457) " cx="5.1646947" cy="13.0044571" r="2.43692719"></circle>
                            </g>
                            <path d="M40.573,56.471 C39.709,56.702 38.821,56.19 38.59,55.326 L37.801,52.38 C37.339,50.658 35.562,49.632 33.84,50.093 C32.117,50.555 31.091,52.332 31.553,54.054 L32.342,57 C32.573,57.864 32.061,58.752 31.197,58.983 C30.333,59.214 29.445,58.702 29.214,57.838 L28.425,54.892 C27.501,51.444 29.555,47.888 33.002,46.964 C36.45,46.04 40.006,48.093 40.93,51.541 L41.719,54.487 C41.95,55.351 41.437,56.239 40.573,56.471 Z" id="Shape" fill="#7B482D"></path>
                            <path d="M62.765,50.524 C61.901,50.755 61.013,50.243 60.782,49.379 L59.993,46.433 C59.532,44.711 57.754,43.685 56.032,44.146 C54.309,44.608 53.283,46.385 53.745,48.107 L54.534,51.053 C54.765,51.917 54.253,52.805 53.389,53.036 C52.525,53.267 51.637,52.755 51.406,51.891 L50.617,48.946 C49.693,45.498 51.747,41.942 55.194,41.018 C58.642,40.094 62.198,42.147 63.122,45.595 L63.911,48.54 C64.142,49.405 63.629,50.293 62.765,50.524 Z" id="Shape" fill="#7B482D"></path>
                            <path d="M23.31,47.046 C22.846,47.17 22.343,47.178 21.845,47.045 C20.333,46.64 19.436,45.086 19.842,43.574 C20.593,40.773 22.885,35.874 29.884,34.536 C31.421,34.242 32.906,35.249 33.2,36.787 C33.494,38.324 32.49,39.804 30.949,40.103 C27.935,40.68 26.04,42.341 25.316,45.042 C25.045,46.055 24.256,46.793 23.31,47.046 Z" id="Shape" fill="#231F20"></path>
                            <path d="M63.007,36.409 C63.471,36.285 63.911,36.04 64.275,35.675 C65.382,34.568 65.381,32.774 64.274,31.667 C62.223,29.617 57.788,26.52 51.058,28.861 C49.58,29.375 48.798,30.99 49.312,32.468 C49.826,33.946 51.436,34.726 52.919,34.214 C55.817,33.206 58.29,33.698 60.267,35.675 C61.009,36.419 62.061,36.663 63.007,36.409 Z" id="Shape" fill="#231F20"></path>
                        </g>
                    </g>
                </g>
                <path d="M32.883,161.033 C30.017,161.033 27.672,163.378 27.672,166.244 L27.672,172.352 C27.672,175.218 30.017,177.563 32.883,177.563 C35.749,177.563 38.094,175.218 38.094,172.352 L38.094,166.244 C38.093,163.378 35.749,161.033 32.883,161.033 Z" id="Shape" fill="#A46644" fill-rule="nonzero"></path>
                <polygon id="Shape" fill="#EBF2F4" fill-rule="nonzero" points="38.093 141.212 5.653 141.212 11.087 182.001 32.658 182.001"></polygon>
                <polygon id="Shape" fill="#FDD204" fill-rule="nonzero" points="33.957 172.151 37.293 147.111 6.453 147.111 9.789 172.151"></polygon>
                <g transform="translate(0.000000, 153.000000)" fill="#A46644" fill-rule="nonzero" id="Shape">
                    <path d="M19.625,23.492 C19.625,26.522 17.146,29.001 14.116,29.001 L5.885,29.001 C2.855,29.001 0.376,26.522 0.376,23.492 C0.376,20.462 2.855,17.983 5.885,17.983 L14.116,17.983 C17.146,17.982 19.625,20.461 19.625,23.492 Z"></path>
                    <path d="M19.625,14.66 C19.625,17.69 17.146,20.169 14.116,20.169 L5.885,20.169 C2.855,20.169 0.376,17.69 0.376,14.66 C0.376,11.63 2.855,9.151 5.885,9.151 L14.116,9.151 C17.146,9.151 19.625,11.63 19.625,14.66 Z"></path>
                    <path d="M19.625,5.829 C19.625,8.859 17.146,11.338 14.116,11.338 L5.885,11.338 C2.855,11.338 0.376,8.859 0.376,5.829 C0.376,2.799 2.855,0.32 5.885,0.32 L14.116,0.32 C17.146,0.319 19.625,2.798 19.625,5.829 Z"></path>
                </g>
                <path d="M38.29,135.588 L5.319,135.588 C4.118,135.588 3.145,136.561 3.145,137.762 L3.145,139.038 C3.145,140.239 4.118,141.212 5.319,141.212 L38.29,141.212 C39.491,141.212 40.464,140.239 40.464,139.038 L40.464,137.762 C40.464,136.561 39.491,135.588 38.29,135.588 Z" id="Shape" fill="#FDD204" fill-rule="nonzero"></path>
                <g transform="translate(19.000000, 106.000000)" fill-rule="nonzero">
                    <rect id="Rectangle-path" fill="#EF4849" x="0.747" y="0.276" width="5.202" height="29.312"></rect>
                    <polygon id="Shape" fill="#FDD204" points="0.747 8.423 5.949 5.822 5.949 1.577 0.747 4.178"></polygon>
                    <polygon id="Shape" fill="#FDD204" points="0.747 17.811 5.949 15.21 5.949 10.965 0.747 13.566"></polygon>
                    <polygon id="Shape" fill="#FDD204" points="0.747 27.199 5.949 24.598 5.949 20.353 0.747 22.954"></polygon>
                </g>
                <path d="M121.378,151.785 L104.084,171.304 C99.511,176.465 92.945,179.42 86.049,179.42" id="Shape" stroke="#EEA6AB" stroke-width="4.3478" stroke-linecap="round" stroke-linejoin="round"></path>
            </g>
            <polygon id="Shape" fill="#FDD204" fill-rule="nonzero" points="479.952 219.331 412.731 219.331 458.688 133.511 525.909 133.511"></polygon>
            <path d="M479.358,154.88 C473.507,152.751 470.463,146.221 472.592,140.371 L484.65,107.241 C486.779,101.39 493.309,98.346 499.159,100.475 C505.01,102.604 508.054,109.133 505.925,114.984 L493.867,148.114 C491.737,153.965 485.208,157.01 479.358,154.88 Z" id="Shape" fill="#F69B8A" fill-rule="nonzero"></path>
            <g id="Group" transform="translate(501.000000, 113.000000)" fill-rule="nonzero">
                <path d="M25.466,72.001 L0.116,72.001 L0.116,52.436 L20.503,52.436 L1.222,7.844 L19.18,0.079 L40.431,49.225 C42.617,54.28 42.116,60.046 39.092,64.649 C36.067,69.253 30.973,72.001 25.466,72.001 Z" id="Shape" fill="#F69B8A"></path>
                <g transform="translate(10.000000, 16.000000)" id="Shape">
                    <path d="M7.402,29.278 L1.565,15.851 C0.437,13.256 0.19,10.312 1.119,7.639 C2.131,4.725 4.266,2.431 7.077,1.215 C8.812,0.465 10.669,0.182 12.565,0.383 C16.537,0.804 19.904,3.512 21.496,7.175 L30.44,27.757 C30.752,28.475 30.226,29.277 29.443,29.277 L7.402,29.277 L7.402,29.278 Z" fill="#FDD204"></path>
                    <path d="M28.027,22.207 L30.439,27.757 C30.751,28.475 30.225,29.277 29.442,29.277 L7.402,29.277 L4.329,22.207 L28.027,22.207 Z" fill="#FFFFFF"></path>
                </g>
            </g>
            <g id="Group" transform="translate(453.000000, 42.000000)" fill-rule="nonzero">
                <circle id="Oval" fill="#FDBC11" transform="translate(47.695843, 31.496242) rotate(-70.001229) translate(-47.695843, -31.496242) " cx="47.6958425" cy="31.4962421" r="24.4700011"></circle>
                <circle id="Oval" fill="#FDBC11" transform="translate(71.400701, 51.069420) rotate(-70.001229) translate(-71.400701, -51.069420) " cx="71.4007006" cy="51.0694196" r="24.4700011"></circle>
                <circle id="Oval" fill="#FDBC11" transform="translate(60.724105, 77.205751) rotate(-70.001229) translate(-60.724105, -77.205751) " cx="60.7241055" cy="77.2057505" r="24.4700011"></circle>
                <g transform="translate(36.000000, 17.000000)" fill="#866AAE" id="Shape">
                    <path d="M29.09,9.568 C20.583,6.472 11.177,10.858 8.08,19.365 L11.073,20.454 C18.436,23.134 26.473,20.208 30.509,13.857 C31.506,12.29 30.836,10.204 29.09,9.568 Z"></path>
                    <path d="M4.153,0.492 C12.66,3.588 17.046,12.995 13.95,21.502 L10.957,20.413 C3.594,17.733 -0.682,10.326 0.309,2.867 C0.552,1.024 2.407,-0.144 4.153,0.492 Z"></path>
                </g>
                <path d="M65.531,78.671 L70.006,66.376 C75.26,51.942 67.687,35.965 53.109,30.933 C38.707,25.417 22.636,32.788 17.383,47.223 L12.908,59.518 L65.531,78.671 Z" id="Shape" fill="#866AAE"></path>
                <circle id="Oval" fill="#F69B8A" transform="translate(9.847905, 58.690661) rotate(-84.997500) translate(-9.847905, -58.690661) " cx="9.8479048" cy="58.6906608" r="8.69707949"></circle>
                <path d="M46.656,33.597 C61.234,38.629 68.807,54.605 63.553,69.04 L57.193,86.513 C51.939,100.947 35.869,108.318 21.467,102.803 C6.889,97.771 -0.684,81.795 4.57,67.36 L10.93,49.887 C16.183,35.452 32.254,28.082 46.656,33.597 Z" id="Shape" fill="#F8B3A0"></path>
                <g transform="translate(13.000000, 74.000000)" id="Shape">
                    <path d="M3.88,1.38 L1.466,8.012 C-0.326,12.935 2.236,18.43 7.159,20.222 L14.142,22.764 C19.065,24.556 24.56,21.994 26.352,17.071 L28.766,10.439 C29.156,9.368 28.604,8.184 27.533,7.794 L6.525,0.148 C5.453,-0.243 4.269,0.309 3.88,1.38 Z" fill="#8C3433"></path>
                    <path d="M27.533,7.793 L7.442,0.481 L6.24,3.782 C5.895,4.729 6.383,5.775 7.33,6.12 L26.122,12.96 C26.963,13.266 27.894,12.832 28.2,11.991 L28.765,10.438 C29.156,9.367 28.604,8.183 27.533,7.793 Z" fill="#FFFFFF"></path>
                    <path d="M14.143,22.763 C18.92,24.502 24.235,22.141 26.183,17.501 C25.246,16.703 24.155,16.054 22.93,15.608 C17.703,13.706 11.955,16.17 9.672,21.136 L14.143,22.763 Z" fill="#EF4849"></path>
                </g>
                <path d="M35.362,72.911 C36.102,73.18 36.92,72.799 37.19,72.059 L38.108,69.536 C38.645,68.061 40.282,67.297 41.758,67.834 C43.234,68.371 43.997,70.009 43.46,71.484 L42.542,74.007 C42.273,74.747 42.654,75.565 43.394,75.835 C44.134,76.104 44.952,75.723 45.222,74.983 L46.14,72.46 C47.215,69.507 45.687,66.23 42.733,65.155 C39.78,64.08 36.503,65.608 35.428,68.561 L34.51,71.084 C34.24,71.823 34.622,72.641 35.362,72.911 Z" id="Shape" fill="#E48C7F"></path>
                <path d="M16.352,65.991 C17.092,66.26 17.91,65.879 18.18,65.139 L19.098,62.616 C19.635,61.141 21.272,60.377 22.748,60.914 C24.224,61.451 24.987,63.089 24.45,64.564 L23.532,67.087 C23.263,67.827 23.644,68.645 24.384,68.915 C25.124,69.184 25.942,68.803 26.212,68.063 L27.13,65.54 C28.205,62.587 26.677,59.31 23.723,58.235 C20.77,57.16 17.493,58.688 16.418,61.641 L15.5,64.164 C15.23,64.904 15.612,65.722 16.352,65.991 Z" id="Shape" fill="#E48C7F"></path>
                <path d="M27.611,74.416 C25.808,73.76 24.87,71.748 25.526,69.946 L28.543,61.657 C29.199,59.854 31.211,58.916 33.013,59.572 C34.816,60.228 35.754,62.24 35.098,64.042 L32.081,72.331 C31.425,74.134 29.413,75.072 27.611,74.416 Z" id="Shape" fill="#F69B8A"></path>
                <g transform="translate(41.000000, 74.000000)" fill="#F69B8A" id="Oval">
                    <circle transform="translate(2.855770, 5.330400) rotate(-70.001229) translate(-2.855770, -5.330400) " cx="2.85577" cy="5.3303998" r="1.61700007"></circle>
                    <circle transform="translate(7.927804, 3.037896) rotate(-70.001229) translate(-7.927804, -3.037896) " cx="7.9278039" cy="3.0378957" r="1.61700007"></circle>
                    <circle transform="translate(7.104912, 7.991537) rotate(-70.001229) translate(-7.104912, -7.991537) " cx="7.1049117" cy="7.9915368" r="1.61700007"></circle>
                </g>
                <g transform="translate(7.000000, 61.000000)" fill="#F69B8A" id="Oval">
                    <circle transform="translate(7.302791, 7.574560) rotate(-70.001229) translate(-7.302791, -7.574560) " cx="7.3027911" cy="7.5745599" r="1.61700007"></circle>
                    <circle transform="translate(4.891052, 2.557644) rotate(-70.001229) translate(-4.891052, -2.557644) " cx="4.8910519" cy="2.5576443" r="1.61700007"></circle>
                    <circle transform="translate(2.337347, 6.881846) rotate(-70.001229) translate(-2.337347, -6.881846) " cx="2.3373467" cy="6.8818461" r="1.61700007"></circle>
                </g>
                <circle id="Oval" fill="#FDD204" transform="translate(25.497566, 33.090190) rotate(-70.001229) translate(-25.497566, -33.090190) " cx="25.4975663" cy="33.0901904" r="16.7320008"></circle>
                <path d="M60.664,47.128 C60.886,46.519 61.047,45.904 61.182,45.287 C57.969,40.014 52.972,35.778 46.656,33.597 C43.703,32.466 40.679,31.885 37.693,31.788 C36.06,33.283 34.747,35.175 33.937,37.4 C31.251,44.78 35.056,52.941 42.436,55.627 C49.817,58.313 57.977,54.508 60.664,47.128 Z" id="Shape" fill="#FDD204"></path>
                <path d="M59.236,42.502 C56.056,44.373 53.483,47.318 52.123,51.055 C49.014,59.597 53.418,69.043 61.961,72.152 C62.098,72.202 62.237,72.233 62.374,72.279 L63.553,69.04 C66.948,59.714 64.981,49.748 59.236,42.502 Z" id="Shape" fill="#FDD204"></path>
                <path d="M65.927,76.71 C66.327,72.143 63.116,68.1 58.662,67.377 L52.823,83.419 C53.913,84.068 55.157,84.497 56.505,84.615 C61.291,85.034 65.509,81.494 65.927,76.71 Z" id="Shape" fill="#F69B8A"></path>
                <g transform="translate(14.000000, 45.000000)" fill="#F9A21B" id="Shape">
                    <path d="M36.353,19.833 C36.751,19.978 37.191,20.023 37.638,19.944 C38.995,19.705 39.901,18.41 39.662,17.053 C39.218,14.538 37.584,10.065 31.547,8.354 C30.221,7.978 28.842,8.748 28.466,10.074 C28.09,11.4 28.858,12.775 30.186,13.155 C32.785,13.892 34.32,15.495 34.748,17.92 C34.908,18.831 35.543,19.538 36.353,19.833 Z"></path>
                    <path d="M2.349,7.456 C1.951,7.311 1.585,7.063 1.293,6.715 C0.407,5.659 0.545,4.086 1.601,3.2 C3.557,1.559 7.685,-0.817 13.409,1.753 C14.666,2.317 15.228,3.794 14.664,5.051 C14.099,6.308 12.628,6.869 11.366,6.306 C8.901,5.2 6.695,5.441 4.809,7.024 C4.1,7.618 3.159,7.751 2.349,7.456 Z"></path>
                </g>
            </g>
            <path d="M274.582,126.555 C264.47,126.555 256.244,118.328 256.244,108.216 L256.244,78.713 C256.244,68.601 264.471,60.374 274.582,60.374 C284.694,60.374 292.921,68.601 292.921,78.713 L292.921,108.216 C292.92,118.329 284.694,126.555 274.582,126.555 Z" id="Shape" fill="#9BCC63" fill-rule="nonzero"></path>
            <path d="M274.582,120.712 C267.343,120.712 261.42,114.789 261.42,107.55 L261.42,79.38 C261.42,72.141 267.343,66.218 274.582,66.218 C281.821,66.218 287.744,72.141 287.744,79.38 L287.744,107.55 C287.744,114.789 281.821,120.712 274.582,120.712 Z" id="Shape" fill="#CD7555" fill-rule="nonzero"></path>
            <g id="Group" transform="translate(234.000000, 13.000000)">
                <g>
                    <path d="M81.078,124.119 L81.078,53.943 L56.035,53.943 L56.035,99.076 C56.035,112.907 67.247,124.119 81.078,124.119 Z" id="Shape" fill="#231F20" fill-rule="nonzero"></path>
                    <path d="M81.078,53.943 L81.078,41.317 C81.078,20.372 65.45,2.348 44.607,0.278 C41.335,-0.047 38.137,0.031 35.049,0.46 C31.712,0.923 29.264,3.843 29.264,7.212 L29.264,53.943 L81.078,53.943 Z" id="Shape" fill="#231F20" fill-rule="nonzero"></path>
                    <path d="M76.238,52.97 L76.238,40.574 C76.238,20.913 60.243,4.918 40.582,4.918 C20.921,4.918 4.925,20.913 4.925,40.574 L4.925,52.97 L76.238,52.97 Z" id="Shape" fill="#231F20" fill-rule="nonzero"></path>
                    <g transform="translate(0.000000, 43.000000)" fill="#CD7555" fill-rule="nonzero" id="Shape">
                        <path d="M80.58,13.692 C79.03,19.359 73.083,22.721 67.298,21.203 C61.513,19.685 58.079,13.86 59.63,8.194 C61.18,2.527 67.127,-0.835 72.912,0.683 C78.697,2.201 82.13,8.026 80.58,13.692 Z"></path>
                        <path d="M21.535,13.692 C19.985,19.359 14.038,22.721 8.253,21.203 C2.468,19.685 -0.966,13.86 0.585,8.194 C2.135,2.527 8.082,-0.835 13.867,0.683 C19.652,2.201 23.085,8.026 21.535,13.692 Z"></path>
                    </g>
                    <path d="M9.766,40.574 C9.766,23.625 23.633,9.758 40.582,9.758 C57.531,9.758 71.398,23.625 71.398,40.574 L71.398,70.158 C71.398,78.16 67.036,85.526 60.019,89.373 L53.749,92.81 C45.547,97.307 35.616,97.307 27.414,92.81 L21.144,89.373 C14.127,85.526 9.765,78.16 9.765,70.158 L9.765,40.574 L9.766,40.574 Z" id="Shape" fill="#D98D73" fill-rule="nonzero"></path>
                    <path d="M41.295,62.233 L41.382,62.233 C43.69,62.233 45.579,60.345 45.579,58.036 L45.579,47.525 C45.579,45.217 43.691,43.328 41.382,43.328 L41.295,43.328 C38.987,43.328 37.098,45.216 37.098,47.525 L37.098,58.036 C37.098,60.344 38.986,62.233 41.295,62.233 Z" id="Shape" fill="#CD7555" fill-rule="nonzero"></path>
                    <g transform="translate(4.000000, 60.000000)" fill="#D53F3F" fill-rule="nonzero" id="Oval">
                        <ellipse cx="4.478" cy="4.568" rx="3.965" ry="3.884"></ellipse>
                        <ellipse cx="68.686" cy="4.568" rx="3.965" ry="3.884"></ellipse>
                    </g>
                    <g transform="translate(25.000000, 63.000000)" fill-rule="nonzero" id="Shape">
                        <path d="M31.035,3.178 L31.035,11.244 C31.035,17.233 26.033,22.132 19.918,22.132 L11.246,22.132 C5.132,22.132 0.129,17.232 0.129,11.244 L0.129,3.178 C0.129,1.875 1.207,0.819 2.537,0.819 L28.626,0.819 C29.957,0.82 31.035,1.875 31.035,3.178 Z" fill="#8C3433"></path>
                        <path d="M26.664,6.686 C27.813,6.686 28.745,5.755 28.745,4.605 L28.745,0.83 C28.705,0.828 28.668,0.818 28.628,0.818 L2.733,0.818 L2.733,4.604 C2.733,5.753 3.665,6.685 4.814,6.685 L26.664,6.685 L26.664,6.686 Z" fill="#FFFFFF"></path>
                        <path d="M4.665,19.99 C6.512,21.329 8.785,22.133 11.246,22.133 L19.918,22.133 C22.379,22.133 24.652,21.33 26.499,19.99 C24.68,15.76 20.478,12.797 15.582,12.797 C10.686,12.797 6.484,15.761 4.665,19.99 Z" fill="#EF4849"></path>
                    </g>
                    <g transform="translate(24.000000, 48.000000)" id="Shape" stroke="#A05D48" stroke-linecap="round" stroke-width="2.9039">
                        <path d="M10.17,6.911 L10.17,5.024 C10.17,2.325 7.962,0.117 5.263,0.117 C2.564,0.117 0.356,2.325 0.356,5.024 L0.356,6.911"></path>
                        <path d="M34.319,6.911 L34.319,5.024 C34.319,2.325 32.111,0.117 29.412,0.117 C26.713,0.117 24.505,2.325 24.505,5.024 L24.505,6.911"></path>
                    </g>
                    <path d="M45.724,5.28 C32.758,3.456 20.875,8.663 13.317,17.63 L25.331,34.849 C28.047,38.741 32.493,41.06 37.238,41.06 L48.122,41.06 L41.337,31.597 L54.293,41.06 L76.237,41.06 L76.237,40.979 C76.238,23.193 63.338,7.759 45.724,5.28 Z" id="Shape" fill="#231F20" fill-rule="nonzero"></path>
                </g>
                <polygon id="Shape" fill="#231F20" fill-rule="nonzero" points="62.431 38.52 71.398 57.154 71.398 38.52"></polygon>
            </g>
            <path d="M328.449,185.273 L340.124,185.273 L330.905,143.694 L308.889,143.694 L316.165,185.109 C317.228,191.16 322.362,195.609 328.45,195.87 L328.45,185.273 L328.449,185.273 Z" id="Shape" fill="#7BC043" fill-rule="nonzero"></path>
            <path d="M220.841,185.273 L209.166,185.273 L218.385,143.694 L240.401,143.694 L233.125,185.109 C232.062,191.16 226.928,195.609 220.84,195.87 L220.84,185.273 L220.841,185.273 Z" id="Shape" fill="#7BC043" fill-rule="nonzero"></path>
            <g id="Group" transform="translate(233.000000, 122.000000)" fill-rule="nonzero">
                <path d="M75.908,18.827 C75.232,18.827 74.607,19.018 74.058,19.328 C73.97,17.312 72.32,15.7 70.282,15.7 C69.606,15.7 68.981,15.891 68.432,16.201 C68.344,14.185 66.694,12.573 64.656,12.573 C63.98,12.573 63.355,12.764 62.806,13.074 C62.718,11.058 61.068,9.446 59.03,9.446 C58.354,9.446 57.729,9.637 57.18,9.947 C57.092,7.931 55.442,6.319 53.404,6.319 C52.728,6.319 52.103,6.51 51.554,6.82 C51.466,4.804 49.816,3.192 47.778,3.192 C47.102,3.192 46.477,3.383 45.928,3.693 C45.84,1.677 44.19,0.065 42.152,0.065 C40.114,0.065 38.464,1.676 38.376,3.693 C37.827,3.383 37.202,3.192 36.526,3.192 C34.488,3.192 32.838,4.803 32.75,6.82 C32.201,6.51 31.575,6.319 30.9,6.319 C28.862,6.319 27.212,7.93 27.124,9.947 C26.575,9.637 25.949,9.446 25.274,9.446 C23.236,9.446 21.586,11.057 21.498,13.074 C20.949,12.764 20.323,12.573 19.648,12.573 C17.61,12.573 15.96,14.184 15.872,16.201 C15.323,15.891 14.698,15.7 14.022,15.7 C11.984,15.7 10.334,17.311 10.246,19.328 C9.697,19.018 9.071,18.827 8.396,18.827 C6.302,18.827 4.604,20.525 4.604,22.619 C4.604,24.713 6.302,26.411 8.396,26.411 L75.906,26.411 C78,26.411 79.698,24.713 79.698,22.619 C79.698,20.525 78.003,18.827 75.908,18.827 Z" id="Shape" fill="#FFFFFF"></path>
                <polygon id="Shape" fill="#FDD204" points="5.342 28.77 14.898 97.253 68.392 97.253 77.948 28.77"></polygon>
                <path d="M79.517,21.693 L3.773,21.693 C1.827,21.693 0.235,23.285 0.235,25.231 C0.235,27.177 1.827,28.769 3.773,28.769 L79.517,28.769 C81.463,28.769 83.055,27.177 83.055,25.231 C83.055,23.286 81.463,21.693 79.517,21.693 Z" id="Shape" fill="#FDD204"></path>
                <rect id="Rectangle-path" fill="#FFFFFF" x="37.433" y="28.77" width="8.424" height="68.483"></rect>
                <g transform="translate(14.000000, 28.000000)" fill="#FFFFFF" id="Shape">
                    <polygon points="46.87 69.253 38.446 69.253 45.884 0.77 54.308 0.77"></polygon>
                    <polygon points="8.42 69.253 16.844 69.253 9.406 0.77 0.982 0.77"></polygon>
                </g>
            </g>
            <g id="Group" transform="translate(223.000000, 192.000000)" fill-rule="nonzero">
                <g transform="translate(44.000000, 0.000000)" id="Shape">
                    <path d="M7.887,156.868 L39.824,156.868 C43.646,156.868 46.772,153.741 46.772,149.92 C46.772,146.098 43.645,142.972 39.824,142.972 L7.887,142.972 C4.065,142.972 0.939,146.099 0.939,149.92 C0.939,153.741 4.066,156.868 7.887,156.868 Z" fill="#D53F3F"></path>
                    <path d="M34.825,142.971 L58.776,21.023 C60.857,10.428 52.746,0.57 41.949,0.57 C33.199,0.57 25.853,7.157 24.902,15.855 L11.012,142.971 L34.825,142.971 Z" fill="#4359A7"></path>
                    <polygon fill="#2B4382" points="12.904 125.668 11.013 142.971 34.825 142.971 38.224 125.668"></polygon>
                </g>
                <g id="Shape">
                    <path d="M51.403,156.868 L19.466,156.868 C15.644,156.868 12.518,153.741 12.518,149.92 C12.518,146.098 15.645,142.972 19.466,142.972 L51.403,142.972 C55.225,142.972 58.351,146.099 58.351,149.92 C58.351,153.741 55.224,156.868 51.403,156.868 Z" fill="#D53F3F"></path>
                    <path d="M24.465,142.971 L0.514,21.023 C-1.567,10.428 6.544,0.57 17.341,0.57 C26.091,0.57 33.437,7.157 34.388,15.855 L48.278,142.971 L24.465,142.971 Z" fill="#4359A7"></path>
                    <polygon fill="#2B4382" points="21.066 125.668 24.465 142.971 48.277 142.971 46.386 125.668"></polygon>
                </g>
            </g>
            <path d="M254.375,50.834 C256.238,49.03 259.161,47.092 263.264,46.833" id="Shape" stroke="#231F20" stroke-width="6" stroke-linecap="round" stroke-linejoin="round"></path>
            <path d="M490.833,199.326 L501.116,199.326 L501.116,165.436 L498.342,165.436 C494.195,165.436 490.834,168.797 490.834,172.944 L490.834,199.326 L490.833,199.326 Z" id="Shape" fill="#F69B8A" fill-rule="nonzero"></path>
            <g id="Group" transform="translate(420.000000, 124.000000)" fill-rule="nonzero">
                <path d="M80.885,74.24 L67.744,62.542 C65.356,60.416 62.269,59.241 59.071,59.241 L21.81,59.241 L39.164,19.32 C41.321,14.359 39.041,8.589 34.075,6.442 C29.123,4.301 23.372,6.574 21.222,11.522 L1.882,56.031 C-0.521,61.589 0.323,68.006 4.198,72.792 C7.361,76.698 12.244,78.806 17.27,78.806 L55.007,78.806 C56.261,78.806 57.472,79.268 58.407,80.104 L66.948,87.735 C69.103,89.661 72.487,89.102 73.909,86.586 L80.885,74.24 Z" id="Shape" fill="#F8B3A0"></path>
                <g transform="translate(11.000000, 0.000000)" id="Shape">
                    <path d="M23.613,29.706 L29.45,16.279 C30.578,13.684 30.825,10.74 29.896,8.067 C28.884,5.153 26.749,2.859 23.937,1.643 C22.202,0.893 20.345,0.61 18.449,0.811 C14.477,1.232 11.11,3.94 9.518,7.603 L0.574,28.185 C0.262,28.903 0.788,29.705 1.571,29.705 L23.613,29.705 L23.613,29.706 Z" fill="#FDD204"></path>
                    <path d="M2.987,22.635 L0.575,28.185 C0.263,28.903 0.789,29.705 1.572,29.705 L23.612,29.705 L26.686,22.635 L2.987,22.635 Z" fill="#FFFFFF"></path>
                </g>
                <path d="M75.507,69.452 L86.615,79.438 C87.791,80.495 88.079,82.225 87.31,83.607 C86.261,85.49 83.745,85.928 82.121,84.511 L72.049,75.72 L75.507,69.452 Z" id="Shape" fill="#F8B3A0"></path>
            </g>
            <g id="Group" transform="translate(332.000000, 191.000000)" fill-rule="nonzero">
                <g id="Shape">
                    <polygon fill="#866AAE" points="69.182 3.487 96.561 28.331 59.958 28.331"></polygon>
                    <g>
                        <polygon fill="#F8B3A0" points="28.512 95.158 12.509 85.919 47.856 24.482 63.859 33.721"></polygon>
                        <path d="M36.658,81.048 L18.574,57.955 L48.345,6.812 C52.097,0.314 60.407,-1.913 66.905,1.839 C73.403,5.591 75.63,13.9 71.878,20.399 L36.658,81.048 Z" fill="#AD85BC"></path>
                        <path d="M28.617,99.064 C29.624,97.32 29.582,95.162 28.509,93.458 L10.333,64.586 C8.732,62.047 5.375,61.287 2.837,62.889 C0.298,64.49 -0.462,67.846 1.14,70.385 L19.322,99.244 C21.501,102.701 26.574,102.603 28.617,99.064 Z" fill="#6F4F9F"></path>
                    </g>
                    <polygon fill="#AD85BC" points="71.878 20.399 77.51 11.043 69.182 3.487"></polygon>
                </g>
                <g transform="translate(51.000000, 0.000000)" id="Shape">
                    <polygon fill="#866AAE" points="69.561 3.487 96.941 28.331 60.338 28.331"></polygon>
                    <g>
                        <polygon fill="#F8B3A0" points="28.892 95.158 12.889 85.919 48.236 24.482 64.239 33.721"></polygon>
                        <path d="M37.038,81.048 L18.954,57.955 L48.725,6.812 C52.477,0.314 60.787,-1.913 67.285,1.839 C73.783,5.591 76.01,13.9 72.258,20.399 L37.038,81.048 Z" fill="#AD85BC"></path>
                        <path d="M28.997,99.064 C30.004,97.32 29.962,95.162 28.889,93.458 L10.713,64.586 C9.112,62.047 5.755,61.287 3.217,62.889 C0.678,64.49 -0.082,67.846 1.52,70.385 L19.702,99.244 C21.88,102.701 26.954,102.603 28.997,99.064 Z" fill="#6F4F9F"></path>
                    </g>
                    <polygon fill="#AD85BC" points="72.258 20.399 77.89 11.043 69.561 3.487"></polygon>
                </g>
            </g>
            <g id="Group" transform="translate(318.000000, 173.000000)" fill-rule="nonzero">
                <path d="M9.372,1.794 L2.031,9.135 C-0.067,11.233 -0.067,14.667 2.031,16.766 C4.039,18.774 7.258,18.838 9.372,17.003 L9.372,1.794 Z" id="Shape" fill="#CD7555"></path>
                <g transform="translate(7.000000, 0.000000)" fill="#D98D73">
                    <g id="Shape">
                        <path d="M23.636,21.689 C26.666,21.689 29.145,19.21 29.145,16.18 L29.145,5.949 C29.145,2.919 26.666,0.44 23.636,0.44 C20.606,0.44 18.127,2.919 18.127,5.949 L18.127,16.18 C18.127,19.21 20.606,21.689 23.636,21.689 Z"></path>
                        <path d="M14.805,23.689 C17.835,23.689 20.314,21.21 20.314,18.18 L20.314,5.949 C20.314,2.919 17.835,0.44 14.805,0.44 C11.775,0.44 9.296,2.919 9.296,5.949 L9.296,18.18 C9.296,21.21 11.775,23.689 14.805,23.689 Z"></path>
                        <path d="M5.973,21.689 C9.003,21.689 11.482,19.21 11.482,16.18 L11.482,5.949 C11.482,2.919 9.003,0.44 5.973,0.44 C2.943,0.44 0.464,2.919 0.464,5.949 L0.464,16.18 C0.464,19.21 2.943,21.689 5.973,21.689 Z"></path>
                    </g>
                    <rect id="Rectangle-path" x="5.973" y="0.439" width="17.663" height="11.674"></rect>
                </g>
            </g>
            <g id="Group" transform="translate(191.000000, 173.000000)" fill-rule="nonzero">
                <path d="M27.752,1.794 L35.093,9.135 C37.191,11.233 37.191,14.667 35.093,16.766 C33.085,18.774 29.866,18.838 27.752,17.003 L27.752,1.794 Z" id="Shape" fill="#CD7555"></path>
                <g fill="#D98D73">
                    <g id="Shape">
                        <path d="M6.488,21.689 C3.458,21.689 0.979,19.21 0.979,16.18 L0.979,5.949 C0.979,2.919 3.458,0.44 6.488,0.44 C9.518,0.44 11.997,2.919 11.997,5.949 L11.997,16.18 C11.997,19.21 9.518,21.689 6.488,21.689 Z"></path>
                        <path d="M15.319,23.689 C12.289,23.689 9.81,21.21 9.81,18.18 L9.81,5.949 C9.81,2.919 12.289,0.44 15.319,0.44 C18.349,0.44 20.828,2.919 20.828,5.949 L20.828,18.18 C20.829,21.21 18.349,23.689 15.319,23.689 Z"></path>
                        <path d="M24.151,21.689 C21.121,21.689 18.642,19.21 18.642,16.18 L18.642,5.949 C18.642,2.919 21.121,0.44 24.151,0.44 C27.181,0.44 29.66,2.919 29.66,5.949 L29.66,16.18 C29.66,19.21 27.181,21.689 24.151,21.689 Z"></path>
                    </g>
                    <rect id="Rectangle-path" transform="translate(15.319000, 6.275800) rotate(-180.000000) translate(-15.319000, -6.275800) " x="6.48750001" y="0.438799985" width="17.663" height="11.674"></rect>
                </g>
            </g>
            <g id="Group" transform="translate(152.000000, 173.000000)" fill-rule="nonzero">
                <path d="M9.167,1.794 L1.826,9.135 C-0.272,11.233 -0.272,14.667 1.826,16.766 C3.834,18.774 7.053,18.838 9.167,17.003 L9.167,1.794 Z" id="Shape" fill="#8D4D2A"></path>
                <g transform="translate(7.000000, 0.000000)" fill="#A46644">
                    <g id="Shape">
                        <path d="M23.431,21.689 C26.461,21.689 28.94,19.21 28.94,16.18 L28.94,5.949 C28.94,2.919 26.461,0.44 23.431,0.44 C20.401,0.44 17.922,2.919 17.922,5.949 L17.922,16.18 C17.922,19.21 20.401,21.689 23.431,21.689 Z"></path>
                        <path d="M14.6,23.689 C17.63,23.689 20.109,21.21 20.109,18.18 L20.109,5.949 C20.109,2.919 17.63,0.44 14.6,0.44 C11.57,0.44 9.091,2.919 9.091,5.949 L9.091,18.18 C9.091,21.21 11.57,23.689 14.6,23.689 Z"></path>
                        <path d="M5.768,21.689 C8.798,21.689 11.277,19.21 11.277,16.18 L11.277,5.949 C11.277,2.919 8.798,0.44 5.768,0.44 C2.738,0.44 0.259,2.919 0.259,5.949 L0.259,16.18 C0.259,19.21 2.738,21.689 5.768,21.689 Z"></path>
                    </g>
                    <rect id="Rectangle-path" x="5.768" y="0.439" width="17.663" height="11.674"></rect>
                </g>
            </g>
        </g>
    </g>
</svg>