<?xml version="1.0" encoding="UTF-8"?>
<svg width="388px" height="273px" viewBox="0 0 388 273" version="1.1" xmlns="http://www.w3.org/2000/svg" xmlns:xlink="http://www.w3.org/1999/xlink">
    <!-- Generator: Sketch 51.2 (57519) - http://www.bohemiancoding.com/sketch -->
    <title>office_with_desk</title>
    <desc>Created with Sketch.</desc>
    <defs></defs>
    <g id="Page-1" stroke="none" stroke-width="1" fill="none" fill-rule="evenodd">
        <g id="office_with_desk">
            <g id="Group" transform="translate(7.000000, 0.000000)" fill-rule="nonzero">
                <path d="M215.3,138.6 L14.4,138.6 C6.4,138.6 0,132.1 0,124.2 L0,15.2 C0,7.2 6.5,0.8 14.4,0.8 L215.3,0.8 C223.3,0.8 229.7,7.3 229.7,15.2 L229.7,124.2 C229.7,132.1 223.3,138.6 215.3,138.6 Z" id="Shape" fill="#FFFFFF"></path>
                <path d="M211.4,128.8 L17.6,128.8 C14,128.8 11.1,125.9 11.1,122.3 L11.1,17 C11.1,13.4 14,10.5 17.6,10.5 L211.4,10.5 C215,10.5 217.9,13.4 217.9,17 L217.9,122.3 C217.9,125.9 215,128.8 211.4,128.8 Z" id="Shape" fill="#A4EAF8"></path>
                <path d="M65.2,80.7 C60.3,70.2 49.6,62.8 37.2,62.8 C26.2,62.8 16.5,68.6 11,77.3 L11,93.6 L103.6,93.6 C103.6,81.8 94,72.2 82.2,72.2 C75.3,72.3 69.2,75.6 65.2,80.7 Z" id="Shape" fill="#D4F5FC"></path>
                <path d="M217.9,15.9 C213.4,19 209.7,23.3 207.3,28.3 C203.4,23.2 197.2,19.9 190.3,19.9 C178.5,19.9 168.9,29.5 168.9,41.3 L217.9,41.3 L217.9,15.9 Z" id="Shape" fill="#D4F5FC"></path>
                <path d="M96.2,10.5 L11,95.7 L11,122.7 L123.3,10.5 L96.2,10.5 Z M143.4,10.5 L25,128.8 L90.1,128.8 L208.5,10.5 L143.4,10.5 Z" id="Shape" fill="#FFFFFF" opacity="0.16"></path>
                <polygon id="Shape" fill="#FFFFFF" points="223.1 38.4 156.2 38.4 156.2 7.4 145.2 7.4 145.2 38.4 82.7 38.4 82.7 7.4 71.8 7.4 71.8 38.4 6.8 38.4 6.8 47.3 71.8 47.3 71.8 134 82.7 134 82.7 47.3 145.2 47.3 145.2 134 156.2 134 156.2 47.3 223.1 47.3"></polygon>
            </g>
            <path d="M223.4,137.5 L14.8,137.5 C12.4,137.5 10.5,135.6 10.5,133.2 C10.5,130.8 12.4,128.9 14.8,128.9 L223.4,128.9 C225.8,128.9 227.7,130.8 227.7,133.2 C227.8,135.6 225.8,137.5 223.4,137.5 Z" id="Shape" fill="#E9E9EA" fill-rule="nonzero"></path>
            <g id="Group" transform="translate(246.000000, 21.000000)" fill-rule="nonzero">
                <path d="M10.8,99.3 L131.1,99.3 C136.9,99.3 141.7,94.6 141.7,88.7 L141.7,11.5 C141.7,5.7 137,0.9 131.1,0.9 L10.8,0.9 C5,0.9 0.2,5.6 0.2,11.5 L0.2,88.8 C0.2,94.6 5,99.3 10.8,99.3 Z" id="Shape" fill="#E9E9EA"></path>
                <rect id="Rectangle-path" fill="#FFFFFF" transform="translate(70.971000, 50.146800) rotate(-180.000000) translate(-70.971000, -50.146800) " x="8.22100001" y="9.59679998" width="125.5" height="81.1"></rect>
                <path d="M116.3,54.3 L98.3,54.3 C95.5,54.3 93.2,52 93.2,49.2 L93.2,20.8 C93.2,18 95.5,15.7 98.3,15.7 L116.3,15.7 C119.1,15.7 121.4,18 121.4,20.8 L121.4,49.2 C121.4,52.1 119.1,54.3 116.3,54.3 Z" id="Shape" fill="#E9E9EA"></path>
                <path d="M107.4,26.9 C105.2,26.9 103.4,25.1 103.4,22.9 C103.4,20.7 105.2,18.9 107.4,18.9 C109.6,18.9 111.4,20.7 111.4,22.9 C111.4,25.1 109.6,26.9 107.4,26.9 Z" id="Shape" fill="#F34848"></path>
                <path d="M84.9,45.4 C82.7,45.4 80.9,43.6 80.9,41.4 C80.9,39.2 82.7,37.4 84.9,37.4 C87.1,37.4 88.9,39.2 88.9,41.4 C88.9,43.6 87.1,45.4 84.9,45.4 Z" id="Shape" fill="#1DB0F6"></path>
                <path d="M64.3,39 C62.1,39 60.3,37.2 60.3,35 C60.3,32.8 62.1,31 64.3,31 C66.5,31 68.3,32.8 68.3,35 C68.3,37.2 66.5,39 64.3,39 Z" id="Shape" fill="#51AF13"></path>
                <g transform="translate(96.000000, 63.000000)" id="Shape">
                    <path d="M20.4,20.2 L5.6,20.2 C4.7,20.2 4,19.5 4,18.6 L4,2.9 L22,2.9 L22,18.6 C22,19.4 21.3,20.2 20.4,20.2 Z" fill="#ECECEF"></path>
                    <path d="M17.1,18.1 L2.5,18.1 C1.4,18.1 0.7,17.1 0.9,16.1 L4,2.9 L22,2.9 L18.7,16.8 C18.5,17.6 17.8,18.1 17.1,18.1 Z" fill="#FFD201"></path>
                    <path d="M22,2.9 L4,2.9 L4,1.7 C4,0.8 4.7,0.1 5.6,0.1 L20.4,0.1 C21.3,0.1 22,0.8 22,1.7 L22,2.9 Z" fill="#FFB701"></path>
                </g>
            </g>
            <path d="M239.7,186.8 L202.8,186.8 C195.5,186.8 190.5,180.9 191.5,173.6 L199.6,117.5 C200.6,110.2 207.4,104.3 214.7,104.3 L251.6,104.3 C258.9,104.3 263.9,110.2 262.9,117.5 L254.8,173.6 C253.8,180.9 247,186.8 239.7,186.8 Z" id="Shape" fill="#4B4B4B" fill-rule="nonzero"></path>
            <path d="M229.9,186.8 L193,186.8 C185.7,186.8 180.7,180.9 181.7,173.6 L189.8,117.5 C190.8,110.2 197.6,104.3 204.9,104.3 L241.8,104.3 C249.1,104.3 254.1,110.2 253.1,117.5 L245,173.6 C243.9,180.9 237.1,186.8 229.9,186.8 Z" id="Shape" fill="#666161" fill-rule="nonzero"></path>
            <g id="Group" transform="translate(153.000000, 181.000000)" fill="#4B4B4B" fill-rule="nonzero">
                <path d="M81.8,26.6 L10.9,26.6 C5.2,26.6 0.6,22 0.6,16.3 L0.6,0.5 L92.2,0.5 L92.2,16.3 C92.1,21.9 87.5,26.6 81.8,26.6 Z" id="Shape"></path>
                <rect id="Rectangle-path" x="46.3" y="19.4" width="8.4" height="44.1"></rect>
                <path d="M53.5,69.1 L46.8,69.1 C45.1,69.1 43.7,67.7 43.7,66 L43.7,51.6 C43.7,49.9 45.1,48.5 46.8,48.5 L53.5,48.5 C55.2,48.5 56.6,49.9 56.6,51.6 L56.6,66 C56.6,67.7 55.2,69.1 53.5,69.1 Z" id="Shape"></path>
                <path d="M81.1,74.1 L18.1,74.1 C15.9,74.1 14.2,72.4 14.2,70.2 C14.2,68.3 15.6,66.6 17.5,66.3 L50.1,61.6 L81.6,66.3 C83.5,66.6 84.9,68.2 84.9,70.2 C85,72.3 83.3,74.1 81.1,74.1 Z" id="Shape"></path>
                <circle id="Oval" cx="79.6" cy="79.3" r="4.9"></circle>
                <circle id="Oval" cx="21.5" cy="79.3" r="4.9"></circle>
                <circle id="Oval" cx="36.1" cy="79.3" r="4.9"></circle>
                <circle id="Oval" cx="50.6" cy="79.3" r="4.9"></circle>
                <circle id="Oval" cx="65.1" cy="79.3" r="4.9"></circle>
            </g>
            <path d="M77.5,174.3 L332.7,174.3 C335.4,174.3 337.6,172.1 337.6,169.4 C337.6,166.7 335.4,164.5 332.7,164.5 L77.5,164.5 C74.8,164.5 72.6,166.7 72.6,169.4 C72.6,172.1 74.8,174.3 77.5,174.3 Z" id="Shape" fill="#8E4D2C" fill-rule="nonzero"></path>
            <path d="M87.5,265.2 C84.6,265.2 82.3,262.9 82.3,260 L82.3,172.3 L92.7,172.3 L92.7,260 C92.7,262.8 90.4,265.2 87.5,265.2 Z" id="Shape" fill="#8E4D2C" fill-rule="nonzero"></path>
            <rect id="Rectangle-path" fill="#61361E" fill-rule="nonzero" x="92.7" y="174.3" width="156.5" height="19.4"></rect>
            <g id="XMLID_728_" transform="translate(14.000000, 151.000000)" fill-rule="nonzero">
                <path d="M21.2,84.1 C21.2,84.1 24.7,60.9 24.7,35.3 C24.7,21.9 23.7,10.2 22.8,2 C22.6,-0.1 19.6,-0.1 19.3,2 C18.1,10.6 16.8,22.9 16.8,35.3 C16.9,59.3 21.2,84.1 21.2,84.1 Z" id="XMLID_735_" fill="#78C802"></path>
                <path d="M24.5,103.7 C24.5,103.7 24.1,82 19.9,58.7 C17.7,46.5 14.8,36 12.6,28.8 C12,26.8 9.1,27.3 9.2,29.4 C9.4,37.5 10.2,48.9 12.2,60.2 C16.1,81.9 24.5,103.7 24.5,103.7 Z" id="XMLID_734_" fill="#51AF13"></path>
                <path d="M18.5,75.7 C21.6,85.1 24.1,94.4 25.8,101.9 C24.4,102 23,102.6 21.8,103 C21.6,103.1 21.4,103.2 21.1,103.3 C17.7,96.1 13.9,87.2 10.9,78.2 C7.3,67.4 4.9,56.1 3.6,48.2 C3.2,46.2 6.1,45.3 6.9,47.1 C10.2,54 14.6,64 18.5,75.7 Z" id="XMLID_733_" fill="#78C802"></path>
                <path d="M19.5,99 C19.5,99 19.9,77.3 24.1,54 C26.3,41.8 29.2,31.3 31.4,24.1 C32,22.1 34.9,22.6 34.8,24.7 C34.6,32.8 33.8,44.2 31.8,55.5 C27.9,77.2 19.5,99 19.5,99 Z" id="XMLID_732_" fill="#51AF13"></path>
                <path d="M22.4,84.7 C18.8,94 16,103.1 13.9,110.6 C15.3,110.8 16.7,111.4 17.8,111.9 C18,112 18.2,112.1 18.4,112.2 C22.1,105.1 26.3,96.4 29.7,87.6 C33.8,76.9 36.6,65.8 38.4,57.9 C38.8,55.9 36.1,54.9 35.1,56.7 C31.6,63.3 26.8,73.1 22.4,84.7 Z" id="XMLID_731_" fill="#78C802"></path>
                <path d="M42.3,92.1 C42.3,89.2 41.7,86.4 40.6,83.8 C40.1,82.8 39.1,82 38,82 L5,82 C3.9,82 2.9,82.7 2.4,83.8 C0.8,87.4 0.2,91.6 1,95.9 C2.2,102.3 6.5,107.8 12.2,110.7 L11.4,110.7 C10.5,110.7 9.7,111.5 9.7,112.4 C9.7,113.3 10.5,114.1 11.4,114.1 L31.2,114.1 C32.1,114.1 32.9,113.3 32.9,112.4 C32.9,111.5 32.1,110.7 31.2,110.7 L30.7,110.7 C37.6,107.3 42.3,100.3 42.3,92.1 Z" id="XMLID_730_" fill="#FFD201"></path>
                <path d="M0.7,92.6 L42.3,92.6 C42.3,92.4 42.3,92.3 42.3,92.1 C42.3,90.7 42.2,89.4 41.9,88.1 L1.1,88.1 C0.8,89.5 0.7,91 0.7,92.6 Z" id="Shape" fill="#FFB701"></path>
            </g>
            <g id="Group" transform="translate(72.000000, 88.000000)" fill-rule="nonzero">
                <g id="Shape">
                    <g>
                        <path d="M95.1,66.2 L19.4,66.2 C13,66.2 7.2,61 6.3,54.6 L0.7,12 C-0.1,5.6 4.4,0.4 10.7,0.4 L86.4,0.4 C92.8,0.4 98.6,5.6 99.5,12 L105.1,54.6 C106,61.1 101.5,66.2 95.1,66.2 Z" fill="#ACC1D9"></path>
                        <path d="M59.9,46.7 L35.5,46.7 C34.9,46.7 34.3,46.2 34.3,45.5 C34.3,44.9 34.8,44.3 35.5,44.3 L59.9,44.3 C60.5,44.3 61.1,44.8 61.1,45.5 C61,46.2 60.5,46.7 59.9,46.7 Z" fill="#4B4B4B"></path>
                        <path d="M57.2,76.9 L34,76.9 C32,76.9 30.5,74.9 31.1,73 L38.5,44.4 L57.2,44.4 L57.2,76.9 Z" fill="#4B4B4B"></path>
                        <path d="M67.4,63.7 L67.1,63.7 C66.5,63.7 66,63.2 65.9,62.6 L65.3,57.8 C65.2,57.2 65.6,56.7 66.2,56.7 L66.5,56.7 C67.1,56.7 67.6,57.2 67.7,57.8 L68.3,62.6 C68.4,63.3 68,63.7 67.4,63.7 Z" fill="#4B4B4B"></path>
                        <path d="M71.2,63.7 L70.9,63.7 C70.3,63.7 69.8,63.2 69.7,62.6 L69.1,57.8 C69,57.2 69.4,56.7 70,56.7 L70.3,56.7 C70.9,56.7 71.4,57.2 71.5,57.8 L72.1,62.6 C72.2,63.3 71.8,63.7 71.2,63.7 Z" fill="#4B4B4B"></path>
                        <path d="M75,63.7 L74.7,63.7 C74.1,63.7 73.6,63.2 73.5,62.6 L72.9,57.8 C72.8,57.2 73.2,56.7 73.8,56.7 L74.1,56.7 C74.7,56.7 75.2,57.2 75.3,57.8 L75.9,62.6 C76,63.3 75.6,63.7 75,63.7 Z" fill="#4B4B4B"></path>
                    </g>
                    <path d="M78.4,76.9 L51.3,76.9 L51.3,73.5 L75.5,73.5 C77.1,73.5 78.4,74.8 78.4,76.4 L78.4,76.9 Z" fill="#4B4B4B"></path>
                </g>
                <ellipse id="Oval" fill="#9BB4D1" transform="translate(45.633880, 27.975080) rotate(-46.859889) translate(-45.633880, -27.975080) " cx="45.63388" cy="27.97508" rx="9.50021152" ry="10.8002405"></ellipse>
            </g>
            <g id="Group" transform="translate(269.000000, 74.000000)">
                <path d="M65,37.5 L17.4,7.2" id="Shape" stroke="#666161" stroke-width="2.5035"></path>
                <path d="M44.9,81.3 L67.4,43.5" id="Shape" stroke="#666161" stroke-width="2.5035"></path>
                <path d="M40.5,78.9 L63,41.1" id="Shape" stroke="#666161" stroke-width="2.5035"></path>
                <path d="M32.4,84.7 C32.4,79.9 36.3,76 41.1,76 C45.9,76 49.8,79.9 49.8,84.7 L32.4,84.7 Z" id="Shape" fill="#1DB0F6" fill-rule="nonzero"></path>
                <path d="M59.9,90.6 L22.3,90.6 L22.3,87.9 C22.3,85.6 24.2,83.7 26.5,83.7 L55.7,83.7 C58,83.7 59.9,85.6 59.9,87.9 L59.9,90.6 Z" id="Shape" fill="#1DB0F6" fill-rule="nonzero"></path>
                <g fill="#1DB0F6" fill-rule="nonzero" id="Shape">
                    <path d="M20.4,21.5 L8.6,21.5 C8.2,21.5 7.9,21.2 7.9,20.8 L7.9,7.2 C7.9,3.5 10.9,0.6 14.5,0.6 C18.2,0.6 21.1,3.6 21.1,7.2 L21.1,20.8 C21.1,21.2 20.8,21.5 20.4,21.5 Z"></path>
                    <path d="M26.3,30.4 L2.8,30.4 C1.5,30.4 0.4,29.3 0.4,28 C0.4,20.2 6.7,13.9 14.5,13.9 C22.3,13.9 28.6,20.2 28.6,28 C28.6,29.3 27.6,30.4 26.3,30.4 Z"></path>
                </g>
                <circle id="Oval" fill="#666161" fill-rule="nonzero" cx="66.4" cy="39.9" r="7"></circle>
            </g>
            <path d="M320.8,265.2 L257.2,265.2 C252.8,265.2 249.2,261.6 249.2,257.2 L249.2,172.3 L328.8,172.3 L328.8,257.2 C328.8,261.6 325.2,265.2 320.8,265.2 Z" id="Shape" fill="#8E4D2C" fill-rule="nonzero"></path>
            <path d="M206.4,164.9 L156.8,164.9 L156.8,163.5 C156.8,161.5 158.4,160 160.3,160 L202.8,160 C204.8,160 206.3,161.6 206.3,163.5 L206.3,164.9 L206.4,164.9 Z" id="Shape" fill="#ACC1D9" fill-rule="nonzero"></path>
            <path d="M4.5,265.2 L347.1,265.2 C349.2,265.2 350.9,266.9 350.9,269 C350.9,271.1 349.2,272.8 347.1,272.8 L4.5,272.8 C2.4,272.8 0.7,271.1 0.7,269 C0.7,266.9 2.4,265.2 4.5,265.2 Z" id="Shape" fill="#E9E9EA" fill-rule="nonzero"></path>
        </g>
    </g>
</svg>